<svg width="54" height="54" viewBox="0 0 54 54" fill="none" xmlns="http://www.w3.org/2000/svg">
<path d="M18.0333 24.9833C20.4333 29.7 24.3 33.55 29.0167 35.9667L32.6833 32.3C33.1333 31.85 33.8 31.7 34.3833 31.9C36.25 32.5167 38.2667 32.85 40.3333 32.85C41.25 32.85 42 33.6 42 34.5167V40.3333C42 41.25 41.25 42 40.3333 42C24.6833 42 12 29.3167 12 13.6667C12 12.75 12.75 12 13.6667 12H19.5C20.4167 12 21.1667 12.75 21.1667 13.6667C21.1667 15.75 21.5 17.75 22.1167 19.6167C22.3 20.2 22.1667 20.85 21.7 21.3167L18.0333 24.9833Z" fill="white"/>
<circle cx="27" cy="27" r="26.5" stroke="white"/>
</svg>
