<svg width="54" height="54" viewBox="0 0 54 54" fill="none" xmlns="http://www.w3.org/2000/svg">
<path d="M27.0001 10.333C23.4868 10.3328 20.1155 11.7193 17.6188 14.191C15.1221 16.6627 13.7019 20.0199 13.6667 23.533C13.6667 32.6663 25.4167 42.833 25.9167 43.2663C26.2186 43.5246 26.6028 43.6665 27.0001 43.6665C27.3973 43.6665 27.7815 43.5246 28.0834 43.2663C28.6667 42.833 40.3334 32.6663 40.3334 23.533C40.2983 20.0199 38.878 16.6627 36.3813 14.191C33.8847 11.7193 30.5133 10.3328 27.0001 10.333ZM27.0001 39.7497C24.2167 37.0997 17.0001 29.7497 17.0001 23.533C17.0001 20.8808 18.0536 18.3373 19.929 16.4619C21.8044 14.5866 24.3479 13.533 27.0001 13.533C29.6522 13.533 32.1958 14.5866 34.0711 16.4619C35.9465 18.3373 37.0001 20.8808 37.0001 23.533C37.0001 29.6997 29.7834 37.0997 27.0001 39.7497Z" fill="white"/>
<path d="M27.0001 17C25.8464 17 24.7185 17.3421 23.7593 17.9831C22.8 18.6241 22.0523 19.5351 21.6108 20.601C21.1693 21.6669 21.0538 22.8398 21.2788 23.9714C21.5039 25.1029 22.0595 26.1423 22.8753 26.9581C23.6911 27.7739 24.7305 28.3295 25.8621 28.5546C26.9936 28.7797 28.1665 28.6641 29.2324 28.2226C30.2983 27.7811 31.2093 27.0334 31.8503 26.0742C32.4913 25.1149 32.8334 23.9871 32.8334 22.8333C32.8334 21.2862 32.2188 19.8025 31.1249 18.7085C30.0309 17.6146 28.5472 17 27.0001 17ZM27.0001 25.3333C26.5056 25.3333 26.0223 25.1867 25.6112 24.912C25.2 24.6373 24.8796 24.2469 24.6904 23.79C24.5012 23.3332 24.4517 22.8306 24.5481 22.3456C24.6446 21.8607 24.8827 21.4152 25.2323 21.0656C25.5819 20.7159 26.0274 20.4778 26.5124 20.3814C26.9973 20.2849 27.5 20.3344 27.9568 20.5236C28.4136 20.7129 28.8041 21.0333 29.0788 21.4444C29.3535 21.8555 29.5001 22.3389 29.5001 22.8333C29.5001 23.4964 29.2367 24.1323 28.7679 24.6011C28.299 25.0699 27.6631 25.3333 27.0001 25.3333Z" fill="white"/>
<circle cx="27" cy="27" r="26.5" stroke="white"/>
</svg>
