<?xml version="1.0" encoding="UTF-8"?>
<svg id="Layer_1" data-name="Layer 1" xmlns="http://www.w3.org/2000/svg" viewBox="0 0 1000 1000">
  <defs>
    <style>
      .cls-1, .cls-2 {
        fill: #fff;
      }

      .cls-3 {
        letter-spacing: -.08em;
      }

      .cls-4 {
        letter-spacing: 0em;
      }

      .cls-2 {
        font-family: DidotLTPro-Roman, 'Didot LT Pro';
        font-size: 150px;
      }
    </style>
  </defs>
  <g>
    <path class="cls-1" d="M98.34,417.42l34.88,90.63,41.77-83.14,39.45,85.23,29.16-54.04,55.28-1.66c6.9-2.83,9.98-9.94,9.28-17.12-.51-5.16-5.79-12.66-11.23-13.2-7.58-.75-15.6-.23-23.26-.38-13.49-.27-43.99-.23-44.69,0l10.93,30.85-14.09,24.3-28.91-76.38s66.49-.05,92.52.75c7.49.23,11.38-.78,18.6,2.28,24.14,10.23,28.37,39.91,11.76,59.18-12.15,14.09-27.11,12.24-44.12,12.62-5.19.11-10.4-.28-15.59.18l-32.79,61.88-26.13-.03-26.38-60.47-29.8,60.49-25.08-.04-46.58-121.92h25.02ZM93.61,424.91h-9.65l41.02,107.13,14.75.08,35.84-70.95,30.25,70.51,16.95.02,32.65-61.41,42.25-.9c32.92-6.7,33.75-57.39-2.7-59.08-11.92-.55-24.33-.28-36.25-.39-17.27-.16-34.56.15-51.83.02l20.1,52.01c1.24-1.42,4.83-6.84,4.72-8.42l-13.39-37.28c22.23.51,44.58-.69,66.8-.02,7.11.21,15.66-.33,21.25,4.36,12.64,10.62,12.49,30.61-2.04,39.31-5.49,3.29-35.8,2.94-45.22,3.25-3.61.12-7.26-.28-10.85.18l-33.83,62.07-39.85-83.54-42.16,84.32-38.82-101.26Z"/>
    <path class="cls-1" d="M273.09,539.18h-21.87l-8.44-22.67c4.29-7.54,8.12-15.49,12.97-22.64l17.34,45.31ZM262.45,531.69l-7.89-20.88c-.37-.28-3.62,5.85-3.78,6.5l5.55,14.39h6.11Z"/>
  </g>
  <text class="cls-2" transform="translate(337.38 529.15)"><tspan class="cls-3" x="0" y="0">P</tspan><tspan class="cls-4" x="85.2" y="0">ow</tspan><tspan x="276.75" y="0">erful</tspan></text>
</svg>