<svg width="97" height="97" viewBox="0 0 97 97" fill="none" xmlns="http://www.w3.org/2000/svg">
<path d="M49.3046 11.9437C48.8571 11.9444 48.4154 12.0445 48.0113 12.2368C47.6073 12.4291 47.251 12.7087 46.9682 13.0555L46.7346 13.2287C42.3544 11.8978 37.6957 11.7766 33.2523 12.8779C28.8088 13.9792 24.7459 16.262 21.4942 19.4844C18.6146 22.3384 16.4731 25.8507 15.2548 29.7177C14.0364 33.5847 13.7778 37.6902 14.5014 41.6795L14.4409 41.7399L10.582 45.5706C9.78608 46.3607 9.15439 47.3004 8.72331 48.3357C8.29224 49.371 8.07031 50.4814 8.07031 51.6028C8.07031 52.7242 8.29224 53.8346 8.72331 54.8699C9.15439 55.9052 9.78608 56.8449 10.582 57.6349C11.5199 58.5648 12.659 59.2667 13.9113 59.6865C15.1636 60.1062 16.4956 60.2326 17.8044 60.0559C18.2711 61.7547 19.2493 63.2688 20.6063 64.3923C21.9634 65.5158 23.6334 66.1944 25.3894 66.3357C25.5699 68.4013 26.4923 70.3316 27.9859 71.7696C29.4795 73.2077 31.4433 74.0563 33.5142 74.1584C33.6189 76.1966 34.4528 78.2027 36.0197 79.7575C39.0811 82.8028 43.8827 83.0646 47.2462 80.5511L48.8051 82.0979C50.4271 83.7066 52.6191 84.6093 54.9037 84.6093C57.1882 84.6093 59.3802 83.7066 61.0023 82.0979C62.4927 80.6115 63.3265 78.7223 63.4997 76.7888C65.5093 76.6169 67.394 75.7427 68.8231 74.3195C70.2522 72.8963 71.1342 71.0152 71.3143 69.0064C73.0846 68.8425 74.7602 68.1328 76.1096 66.9754C77.459 65.8179 78.4155 64.2699 78.847 62.5453C80.1362 62.6985 81.4435 62.5586 82.6711 62.1359C83.8987 61.7132 85.0149 61.0187 85.9365 60.1042C86.7318 59.3142 87.363 58.3747 87.7937 57.3398C88.2244 56.3049 88.4462 55.195 88.4462 54.0741C88.4462 52.9531 88.2244 51.8432 87.7937 50.8083C87.363 49.7734 86.7318 48.8339 85.9365 48.0439L82.5811 44.7046L83.2739 42.0219C84.7736 36.1838 84.0186 29.995 81.1591 24.6887C79.0792 20.8364 75.9952 17.6189 72.2343 15.3778C68.4734 13.1367 64.1759 11.9556 59.7979 11.9598H53.3246C53.0482 11.9473 52.7715 11.9419 52.4948 11.9437H49.3046ZM61.0869 31.8629L75.0404 45.7237L75.0525 45.7439L75.1089 45.7962L81.6546 52.3017C81.8884 52.5338 82.074 52.8099 82.2007 53.1141C82.3273 53.4183 82.3925 53.7446 82.3925 54.0741C82.3925 54.4036 82.3273 54.7298 82.2007 55.034C82.074 55.3382 81.8884 55.6143 81.6546 55.8465C81.1795 56.3163 80.5383 56.5798 79.8701 56.5798C79.202 56.5798 78.5607 56.3163 78.0857 55.8465L71.5399 49.341C70.9697 48.7762 70.1995 48.4594 69.3969 48.4594C68.5944 48.4594 67.8242 48.7762 67.254 49.341L67.1895 49.4095C66.9083 49.6881 66.6851 50.0197 66.5327 50.3851C66.3804 50.7505 66.302 51.1425 66.302 51.5383C66.302 51.9342 66.3804 52.3262 66.5327 52.6916C66.6851 53.057 66.9083 53.3886 67.1895 53.6672L72.2891 58.7346C72.5242 58.9669 72.7108 59.2435 72.8382 59.5485C72.9656 59.8534 73.0312 60.1806 73.0312 60.511C73.0312 60.8415 72.9656 61.1687 72.8382 61.4736C72.7108 61.7786 72.5242 62.0552 72.2891 62.2875C71.858 62.7144 71.2881 62.9726 70.6829 63.0155C70.0777 63.0584 69.4771 62.883 68.9901 62.5211C68.4037 62.083 67.6791 61.8707 66.9489 61.9232C66.2188 61.9758 65.532 62.2895 65.0143 62.8071C64.4983 63.323 64.1881 64.0095 64.1422 64.7377C64.0962 65.466 64.3175 66.186 64.7646 66.7627C65.1362 67.2451 65.3187 67.8466 65.2779 68.4542C65.2371 69.0617 64.9758 69.6334 64.543 70.0618C64.1052 70.4956 63.5245 70.7553 62.9093 70.7924C62.2941 70.8295 61.6864 70.6413 61.1997 70.2632C60.6173 69.8089 59.8898 69.5818 59.1525 69.624C58.4151 69.6663 57.7183 69.975 57.1917 70.4928C56.6668 71.0092 56.3504 71.7008 56.3029 72.4355C56.2553 73.1703 56.4799 73.8969 56.9339 74.4766C57.3144 74.9664 57.5024 75.5786 57.4624 76.1976C57.4223 76.8166 57.1569 77.3995 56.7163 77.8361C56.2337 78.3133 55.5824 78.581 54.9037 78.581C54.225 78.581 53.5736 78.3133 53.091 77.8361L51.5925 76.3497L52.0155 75.9268C52.8108 75.1368 53.442 74.1973 53.8727 73.1624C54.3034 72.1275 54.5251 71.0176 54.5251 69.8966C54.5251 68.7757 54.3034 67.6658 53.8727 66.6309C53.442 65.596 52.8108 64.6565 52.0155 63.8665C50.509 62.3667 48.4994 61.4796 46.3761 61.3771C46.2603 59.3078 45.3995 57.3504 43.9526 55.8666C42.5058 54.3827 40.5708 53.4727 38.5051 53.3047C38.3415 51.2868 37.4597 49.3945 36.0197 47.9714C35.0818 47.0416 33.9427 46.3397 32.6904 45.9199C31.4381 45.5002 30.1061 45.3738 28.7973 45.5505C28.2878 43.6954 27.1697 42.0653 25.6224 40.922C24.0752 39.7787 22.1886 39.1886 20.2656 39.2465C19.9583 36.4131 20.2945 33.5469 21.2494 30.8616C22.2042 28.1764 23.753 25.7413 25.7802 23.7381C27.6686 21.8632 29.9258 20.4009 32.4089 19.444C34.892 18.4871 37.5467 18.0564 40.205 18.1793L34.1748 22.7431C33.1949 23.4848 32.3713 24.4129 31.7514 25.474C31.1315 26.5351 30.7276 27.7084 30.5629 28.9262C30.3982 30.1441 30.4759 31.3825 30.7916 32.5702C31.1073 33.7579 31.6548 34.8714 32.4024 35.8467C33.9125 37.8151 36.1397 39.1066 38.5982 39.4394C41.0567 39.7722 43.5471 39.1193 45.5261 37.6231L53.1353 31.8588L61.0869 31.8629ZM37.8203 27.5648L50.4647 17.9859H52.4948C52.7461 17.9848 52.9973 17.9915 53.2481 18.006H59.7979C63.0842 18.0016 66.3104 18.8867 69.1344 20.5675C71.9584 22.2483 74.2748 24.662 75.838 27.5528C77.8319 31.2586 78.4562 35.5204 77.6264 39.617L64.6921 26.7431C64.4105 26.4516 64.0732 26.2197 63.7002 26.0612C63.3272 25.9027 62.9262 25.8209 62.5209 25.8206H52.1243C51.4655 25.8203 50.8247 26.0354 50.2995 26.4329L41.8807 32.8095C41.1746 33.3423 40.2868 33.5748 39.4102 33.4563C38.5336 33.3379 37.7393 32.8781 37.2 32.1771C36.9366 31.8338 36.7437 31.4419 36.6325 31.0238C36.5212 30.6057 36.4939 30.1697 36.5519 29.741C36.6099 29.3122 36.7523 28.8992 36.9706 28.5257C37.189 28.1522 37.4792 27.8257 37.8243 27.5648M24.3139 59.6047C24.0801 59.3726 23.8945 59.0965 23.7679 58.7923C23.6412 58.4881 23.576 58.1618 23.576 57.8323C23.576 57.5028 23.6412 57.1766 23.7679 56.8724C23.8945 56.5682 24.0801 56.2921 24.3139 56.0599L28.1689 52.2332C28.6439 51.7634 29.2852 51.4998 29.9533 51.4998C30.6215 51.4998 31.2627 51.7634 31.7378 52.2332C32.2034 52.6963 32.4678 53.3242 32.4738 53.9809C32.4798 54.6375 32.227 55.2701 31.77 55.7417L31.7378 55.778L27.8829 59.6047L27.8466 59.641C27.369 60.0956 26.7331 60.3465 26.0737 60.3405C25.4143 60.3345 24.7832 60.072 24.3139 59.6087M22.3361 46.0419C22.7908 46.5144 23.0414 47.1468 23.0339 47.8024C23.0264 48.4581 22.7613 49.0845 22.2958 49.5464L18.4409 53.3812C17.9658 53.8511 17.3246 54.1146 16.6564 54.1146C15.9883 54.1146 15.347 53.8511 14.872 53.3812C14.6381 53.1491 14.4525 52.873 14.3259 52.5688C14.1992 52.2646 14.134 51.9383 14.134 51.6088C14.134 51.2793 14.1992 50.9531 14.3259 50.6489C14.4525 50.3447 14.6381 50.0686 14.872 49.8365L18.7309 46.0057C19.206 45.5358 19.8472 45.2723 20.5154 45.2723C21.1836 45.2723 21.8248 45.5358 22.2999 46.0057L22.3361 46.0419ZM43.8786 75.5038C43.4036 75.9736 42.7623 76.2372 42.0942 76.2372C41.426 76.2372 40.7848 75.9736 40.3097 75.5038C40.0759 75.2717 39.8903 74.9955 39.7636 74.6914C39.637 74.3872 39.5718 74.0609 39.5718 73.7314C39.5718 73.4019 39.637 73.0757 39.7636 72.7715C39.8903 72.4673 40.0759 72.1912 40.3097 71.959L44.1646 68.1283C44.6397 67.6584 45.2809 67.3949 45.9491 67.3949C46.6173 67.3949 47.2585 67.6584 47.7336 68.1283C47.9674 68.3604 48.153 68.6365 48.2797 68.9407C48.4063 69.2449 48.4715 69.5712 48.4715 69.9007C48.4715 70.2302 48.4063 70.5564 48.2797 70.8606C48.153 71.1648 47.9674 71.4409 47.7336 71.673L43.8786 75.5038ZM35.7378 67.4153C35.2627 67.8851 34.6215 68.1486 33.9533 68.1486C33.2851 68.1486 32.6439 67.8851 32.1688 67.4153C31.7015 66.9525 31.4356 66.3241 31.4288 65.6665C31.422 65.0088 31.6749 64.3751 32.1326 63.9027L32.1688 63.8705L36.0238 60.0397L36.056 60.0035C36.5343 59.5482 37.1713 59.2972 37.8317 59.304C38.4921 59.3108 39.1238 59.5747 39.5927 60.0397C39.8265 60.2719 40.0121 60.548 40.1388 60.8522C40.2654 61.1564 40.3306 61.4826 40.3306 61.8121C40.3306 62.1416 40.2654 62.4679 40.1388 62.7721C40.0121 63.0763 39.8265 63.3524 39.5927 63.5845L35.7378 67.4153Z" fill="black"/>
</svg>
