<svg width="90" height="90" viewBox="0 0 90 90" fill="none" xmlns="http://www.w3.org/2000/svg">
<rect x="0.5" y="0.5" width="89" height="89" stroke="white"/>
<path d="M79.5269 14.7061C76.8104 19.4406 75.2078 24.5514 74.6685 30.041L74.6147 30.627C74.3344 33.7098 75.2069 37.6943 76.9067 42.4463L76.9097 42.4541L76.9116 42.4609C78.6586 47.2268 79.5423 50.5242 79.7095 52.4512C79.754 56.8904 78.4527 60.8064 75.771 64.3184C73.6058 66.8617 70.1231 69.8118 65.2026 73.1709C64.0121 73.9173 62.0089 74.8221 59.0815 75.8184L59.0737 75.8213L59.0649 75.8242C58.4039 76.0556 57.7442 76.2908 57.0864 76.5312L55.1187 77.2666C54.0781 77.6631 53.1906 78.0338 52.481 78.3672L50.5562 79.1953L50.5337 79.2051L50.5103 79.2158C49.4485 79.7047 48.3768 80.172 47.2964 80.6182L47.1821 80.666L47.0747 80.7266C45.9202 81.3805 44.8755 82.1114 43.9849 82.9385C43.1293 82.1324 42.097 81.3989 40.9448 80.7344L40.8501 80.6797L40.7495 80.6357L39.4312 80.0625C39.0145 79.8815 38.6165 79.7068 38.2251 79.5273L38.2173 79.5244L38.2095 79.5205L35.6606 78.3779L35.4995 78.3057L35.3276 78.2627L34.7759 78.1172C31.9581 77.335 27.9499 75.6784 22.7153 73.1172C17.6705 69.7689 14.1792 66.7982 12.1206 64.2217C9.52127 60.7134 8.25613 56.8032 8.29736 52.4395C8.38037 51.4889 8.61491 50.1611 9.01709 48.4375C9.57588 46.2938 10.2312 44.1764 10.981 42.0918L10.98 42.0908C12.5947 37.7715 13.4654 34.1337 13.4194 31.2432L13.3979 30.6738C13.0816 25.2951 11.5763 20.1389 8.92334 15.2197L18.7681 5.7666C22.2649 8.06568 26.2732 9.4857 30.4507 9.89453L30.9106 9.93555L30.9214 9.93652C35.419 10.2709 39.7468 9.50144 43.9253 7.66309C48.0436 9.57499 52.4116 10.3324 56.9829 9.93457L56.9819 9.93359C61.7314 9.62749 66.005 8.07853 69.7974 5.33789L79.5269 14.7061Z" stroke="black" stroke-width="4"/>
</svg>
