<svg width="97" height="97" viewBox="0 0 97 97" fill="none" xmlns="http://www.w3.org/2000/svg">
<g clip-path="url(#clip0_366_662)">
<path d="M90.0425 50.3787L71.4325 41.8122V17.2674C71.4239 16.7524 71.2675 16.2508 70.9818 15.8223C70.6961 15.3937 70.2933 15.0564 69.8212 14.8505L49.6805 5.58574C49.327 5.42214 48.9421 5.3374 48.5526 5.3374C48.1631 5.3374 47.7782 5.42214 47.4247 5.58574L27.284 14.8505C26.8179 15.0662 26.4234 15.4111 26.1473 15.8442C25.8712 16.2774 25.7252 16.7806 25.7264 17.2942V41.8391L7.19696 50.3787C6.73083 50.5945 6.33633 50.9393 6.06027 51.3725C5.7842 51.8056 5.63814 52.3088 5.63941 52.8225V79.086C5.63814 79.5996 5.7842 80.1028 6.06027 80.536C6.33633 80.9691 6.73083 81.314 7.19696 81.5297L27.3377 90.7945C27.6912 90.9581 28.0761 91.0428 28.4656 91.0428C28.8551 91.0428 29.24 90.9581 29.5935 90.7945L48.6063 82.04L67.6192 90.7945C67.9727 90.9581 68.3575 91.0428 68.747 91.0428C69.1366 91.0428 69.5214 90.9581 69.8749 90.7945L90.0157 81.5297C90.4818 81.314 90.8763 80.9691 91.1524 80.536C91.4284 80.1028 91.5745 79.5996 91.5732 79.086V52.8225C91.5769 52.3117 91.4348 51.8106 91.1637 51.3777C90.8926 50.9449 90.5036 50.5983 90.0425 50.3787ZM82.4964 52.8225L68.7739 59.0795L55.0513 52.8225L68.7739 46.5117L82.4964 52.8225ZM48.6063 10.9566L62.3289 17.2674L48.6063 23.5781L34.9106 17.2674L48.6063 10.9566ZM28.4656 46.4848L42.1881 52.7956L28.4656 59.0795L14.743 52.8225L28.4656 46.4848ZM45.9209 77.3404L28.4656 85.3967L11.0103 77.3404V57.0117L27.3377 64.4504C27.6839 64.606 28.0592 64.6865 28.4387 64.6865C28.8183 64.6865 29.1936 64.606 29.5397 64.4504L45.8672 56.9312L45.9209 77.3404ZM31.151 41.8122V21.4835L47.4784 29.0027C47.8319 29.1663 48.2168 29.251 48.6063 29.251C48.9958 29.251 49.3807 29.1663 49.7342 29.0027L66.0616 21.4835V41.8391L48.6063 49.8953L31.151 41.8122ZM86.2292 77.3673L68.7739 85.4236L51.2917 77.3673V56.9849L67.646 64.4504C67.9885 64.6021 68.359 64.6805 68.7336 64.6805C69.1082 64.6805 69.4787 64.6021 69.8212 64.4504L86.1486 56.9312L86.2292 77.3673Z" fill="black"/>
</g>
<defs>
<clipPath id="clip0_366_662">
<rect width="96.6755" height="96.6755" fill="white"/>
</clipPath>
</defs>
</svg>
